<?xml version="1.0" encoding="utf-8"?>
<!-- Generator: Adobe Illustrator 26.5.0, SVG Export Plug-In . SVG Version: 6.00 Build 0)  -->
<svg version="1.1" xmlns="http://www.w3.org/2000/svg" xmlns:xlink="http://www.w3.org/1999/xlink" x="0px" y="0px"
	 viewBox="0 0 300 300" style="enable-background:new 0 0 300 300;" xml:space="preserve">
<style type="text/css">
	.st0{enable-background:new    ;}
	.st1{fill:#2B3C7A;}
	.st2{fill:#3775BA;}
	.st3{fill:#293C7A;}
</style>
<g id="Rectangle_1_1_" class="st0">
</g>
<g id="Forme_3_1_" class="st0">
</g>
<g id="Forme_15_1_" class="st0">
</g>
<g id="Forme_4_1_" class="st0">
	<g>
		<g>
			<polygon class="st1" points="16.4,16.3 68.7,16.4 68.7,0 0,0 0,300 191.9,300 191.9,283.6 16.4,283.6 			"/>
			<polygon class="st1" points="107.9,0 107.9,16.4 283.7,16.4 283.6,283.6 231.2,283.6 231.2,300 300,300 300,0 			"/>
		</g>
		<rect x="94.5" class="st2" width="16.4" height="16.3"/>
		<g>
			<polygon class="st1" points="69,106 69,160.8 95.3,160.8 100.6,172.3 56.5,172.3 56.5,106 			"/>
			<polygon class="st1" points="144.2,125.6 108.8,208.3 96.1,208.3 111.6,171.6 92.8,125.6 106.3,125.6 113.5,145.8 117.9,159 
				122.8,146.1 131.3,125.6 			"/>
			<path class="st1" d="M163.4,125.6l0.9,5.4c3.6-5.8,8.5-6.6,13.2-6.6c4.8,0,9.5,1.9,12.1,4.5l-5.2,10c-2.4-2-4.6-3-8.4-3
				c-6.1,0-11.7,3.2-11.7,11.8l0,24.6l-11.6,0l0-46.7L163.4,125.6z"/>
			<path class="st1" d="M231.1,125.6l11.1,0l0,46.7l-10.9,0l-0.6-6.8c-2.7,5.5-10,8.1-15.2,8.2c-13.9,0.1-24.1-8.4-24.1-24.8
				c0-16.1,10.7-24.5,24.4-24.4c6.3,0,12.3,2.9,14.9,7.6L231.1,125.6z M202.9,148.9c0,8.9,6.2,14.2,13.9,14.2
				c18.2,0,18.2-28.3,0-28.3C209.1,134.8,202.9,140,202.9,148.9z"/>
		</g>
		<rect x="189.3" y="283.7" class="st2" width="16.4" height="16.3"/>
		<g>
			<path class="st3" d="M171.5,205.4c-2.1,2.1-4.8,3-7.7,3c-7.5,0-10.7-5.2-10.8-10.5c0-5.3,3.4-10.7,10.8-10.7c2.8,0,5.4,1,7.5,3.1
				l-2.6,2.5c-1.3-1.3-3.1-1.9-4.9-1.9c-4.9,0-7,3.7-7,7c0,3.4,2,6.9,7,6.9c1.8,0,3.8-0.7,5.1-2.1L171.5,205.4z"/>
			<path class="st3" d="M187.3,200.8c0,4.1-2.8,7.5-7.5,7.5s-7.4-3.3-7.4-7.5c0-4.1,2.8-7.5,7.4-7.5
				C184.4,193.4,187.3,196.7,187.3,200.8z M176,200.8c0,2.2,1.3,4.2,3.9,4.2s3.9-2,3.9-4.2c0-2.1-1.5-4.2-3.9-4.2
				C177.3,196.6,176,198.7,176,200.8z"/>
			<path class="st3" d="M193.3,187.7V208h-3.5v-20.3H193.3z"/>
			<path class="st3" d="M199.9,187.7V208h-3.5v-20.3H199.9z"/>
			<path class="st3" d="M206,202.1c0.2,1.8,1.8,3,4.3,3c1.3,0,3-0.5,3.8-1.3l2.3,2.2c-1.5,1.6-4,2.3-6.1,2.3c-4.9,0-7.9-3-7.9-7.6
				c0-4.4,3-7.5,7.6-7.5c4.8,0,7.8,3,7.2,8.8H206z M213.8,199.1c-0.2-1.9-1.7-2.8-3.7-2.8c-1.9,0-3.5,0.9-4,2.8H213.8z"/>
			<path class="st3" d="M232.2,206.1c-1.7,1.6-3.4,2.3-5.5,2.3c-4.1,0-7.6-2.5-7.6-7.6s3.5-7.6,7.6-7.6c2,0,3.6,0.6,5.2,2.1
				l-2.2,2.3c-0.8-0.8-1.9-1.1-2.9-1.1c-2.4,0-4.1,1.7-4.1,4.2c0,2.7,1.9,4.2,4.1,4.2c1.1,0,2.3-0.3,3.1-1.2L232.2,206.1z"/>
			<path class="st3" d="M238.7,189.6v4.1h3.9v3h-4v6.2c0,1.4,0.8,2,1.9,2c0.6,0,1.2-0.2,1.7-0.4l1,3c-1,0.4-1.9,0.6-2.9,0.6
				c-3.1,0.1-5.1-1.7-5.1-5.2v-6.2h-2.7v-3h2.7V190L238.7,189.6z"/>
		</g>
	</g>
</g>
</svg>
